<svg xmlns="http://www.w3.org/2000/svg" version="1.1" xmlns:xlink="http://www.w3.org/1999/xlink" xmlns:svgjs="http://svgjs.dev/svgjs" viewBox="0 0 12.704905678938674 12.603323319431055"><g transform="matrix(1,0,0,1,1.0544993482583997,10.480823971172656)"><g><path d=" M 0.18 2.220446049250313e-16 L 0.18 1.0500000000000003 L 0.3165 1.0500000000000003 L 0.3165 0.5865000000000002 L 0.3825 0.5865000000000002 Q 0.4245 0.5865000000000002 0.45225 0.5940000000000003 Q 0.48 0.6015000000000003 0.5025000000000001 0.6195000000000003 Q 0.525 0.6375000000000002 0.5445 0.6660000000000003 Q 0.5640000000000001 0.6945000000000003 0.591 0.7365000000000003 L 0.7095 0.9120000000000003 Q 0.732 0.9465000000000002 0.75375 0.9750000000000003 Q 0.7755 1.0035000000000003 0.801 1.0237500000000002 Q 0.8265 1.0440000000000003 0.85875 1.0560000000000003 Q 0.891 1.0680000000000003 0.936 1.0680000000000003 Q 0.969 1.0680000000000003 0.99 1.0650000000000002 Q 1.0110000000000001 1.0620000000000003 1.032 1.0500000000000003 L 1.032 0.9945000000000003 Q 1.0245 0.9960000000000002 1.0170000000000001 0.9967500000000002 Q 1.0095 0.9975000000000003 1.002 0.9975000000000003 Q 0.9705 0.9975000000000003 0.9465 0.9885000000000003 Q 0.9225 0.9795000000000003 0.9015 0.9622500000000003 Q 0.8805000000000001 0.9450000000000003 0.861 0.9202500000000002 Q 0.8415 0.8955000000000003 0.8205 0.8640000000000003 Q 0.7575000000000001 0.7725000000000002 0.723 0.7177500000000003 Q 0.6885 0.6630000000000003 0.66825 0.6330000000000002 Q 0.648 0.6030000000000002 0.63525 0.5895000000000002 Q 0.6225 0.5760000000000003 0.6045 0.5670000000000003 L 0.5895 0.5595000000000003 L 0.5895 0.5535000000000003 Q 0.6615 0.5490000000000003 0.71325 0.5220000000000002 Q 0.765 0.4950000000000002 0.798 0.45450000000000024 Q 0.8310000000000001 0.41400000000000026 0.846 0.36675000000000024 Q 0.861 0.31950000000000023 0.861 0.2745000000000003 Q 0.861 0.2340000000000002 0.8452500000000001 0.18600000000000028 Q 0.8295 0.13800000000000023 0.79125 0.09675000000000022 Q 0.753 0.055500000000000216 0.687 0.027750000000000163 Q 0.621 2.220446049250313e-16 0.5205 2.220446049250313e-16 L 0.18 2.220446049250313e-16 M 0.3165 0.06600000000000028 L 0.468 0.06600000000000028 Q 0.525 0.06600000000000028 0.57075 0.08250000000000024 Q 0.6165 0.0990000000000002 0.6495 0.1282500000000002 Q 0.6825 0.1575000000000002 0.69975 0.1980000000000003 Q 0.717 0.23850000000000027 0.717 0.2865000000000002 Q 0.717 0.3270000000000003 0.70125 0.3682500000000003 Q 0.6855 0.4095000000000003 0.654 0.44325000000000025 Q 0.6225 0.4770000000000002 0.57675 0.4980000000000002 Q 0.531 0.5190000000000002 0.47100000000000003 0.5190000000000002 L 0.3165 0.5190000000000002 L 0.3165 0.06600000000000028 M 1.8555263671875002 0.7410000000000003 L 1.9995263671875 1.0500000000000003 L 2.1450263671875 1.0500000000000003 L 1.6560263671875002 2.220446049250313e-16 L 1.5810263671875 2.220446049250313e-16 L 1.1370263671875 1.0500000000000003 L 1.2060263671875002 1.0500000000000003 L 1.3380263671875001 0.7410000000000003 L 1.8555263671875002 0.7410000000000003 M 1.8240263671875 0.6735000000000002 L 1.3665263671875 0.6735000000000002 L 1.5825263671875 0.16800000000000026 L 1.5885263671875 0.16800000000000026 L 1.8240263671875 0.6735000000000002 M 2.671518310546875 2.220446049250313e-16 L 2.671518310546875 0.7575000000000003 Q 2.671518310546875 0.7935000000000003 2.669268310546875 0.8362500000000003 Q 2.6670183105468754 0.8790000000000002 2.6520183105468753 0.9157500000000003 Q 2.637018310546875 0.9525000000000002 2.6062683105468754 0.9772500000000003 Q 2.575518310546875 1.0020000000000002 2.518518310546875 1.0020000000000002 Q 2.4690183105468755 1.0020000000000002 2.436768310546875 0.9840000000000002 Q 2.4045183105468753 0.9660000000000003 2.3857683105468754 0.9390000000000003 Q 2.367018310546875 0.9120000000000003 2.3587683105468753 0.8812500000000003 Q 2.3505183105468754 0.8505000000000003 2.3505183105468754 0.8265000000000002 L 2.2200183105468754 0.8265000000000002 Q 2.223018310546875 0.9420000000000003 2.295018310546875 1.0050000000000003 Q 2.367018310546875 1.0680000000000003 2.5110183105468753 1.0680000000000003 Q 2.6145183105468752 1.0680000000000003 2.6745183105468753 1.0372500000000002 Q 2.7345183105468753 1.0065000000000002 2.763768310546875 0.9592500000000003 Q 2.7930183105468753 0.9120000000000003 2.800518310546875 0.8565000000000003 Q 2.808018310546875 0.8010000000000003 2.808018310546875 0.7530000000000003 L 2.808018310546875 2.220446049250313e-16 L 2.671518310546875 2.220446049250313e-16 M 3.7664772949218754 0.7410000000000003 L 3.9104772949218756 1.0500000000000003 L 4.055977294921876 1.0500000000000003 L 3.5669772949218754 2.220446049250313e-16 L 3.4919772949218753 2.220446049250313e-16 L 3.0479772949218753 1.0500000000000003 L 3.1169772949218753 1.0500000000000003 L 3.2489772949218754 0.7410000000000003 L 3.7664772949218754 0.7410000000000003 M 3.734977294921875 0.6735000000000002 L 3.2774772949218756 0.6735000000000002 L 3.4934772949218753 0.16800000000000026 L 3.4994772949218755 0.16800000000000026 L 3.734977294921875 0.6735000000000002 M 4.8359326171875 1.0500000000000003 L 4.972432617187501 1.0500000000000003 L 4.972432617187501 0.6810000000000003 L 5.1419326171875 0.4995000000000003 L 5.5409326171875 1.0500000000000003 L 5.6969326171875 1.0500000000000003 L 5.228932617187501 0.4065000000000003 L 5.6099326171875 2.220446049250313e-16 L 5.534932617187501 2.220446049250313e-16 L 4.972432617187501 0.5910000000000002 L 4.972432617187501 2.220446049250313e-16 L 4.8359326171875 2.220446049250313e-16 L 4.8359326171875 1.0500000000000003 M 5.87693115234375 2.220446049250313e-16 L 5.87693115234375 0.6450000000000002 Q 5.87693115234375 0.7065000000000002 5.8889311523437495 0.7807500000000003 Q 5.90093115234375 0.8550000000000002 5.94593115234375 0.9187500000000003 Q 5.99093115234375 0.9825000000000003 6.07943115234375 1.0252500000000002 Q 6.1679311523437494 1.0680000000000003 6.32093115234375 1.0680000000000003 Q 6.41693115234375 1.0680000000000003 6.49118115234375 1.0380000000000003 Q 6.56543115234375 1.0080000000000002 6.6156811523437495 0.9555000000000002 Q 6.66593115234375 0.9030000000000002 6.69143115234375 0.8332500000000003 Q 6.71693115234375 0.7635000000000003 6.71693115234375 0.6840000000000003 L 6.71693115234375 2.220446049250313e-16 L 6.65093115234375 2.220446049250313e-16 L 6.65093115234375 0.6345000000000003 Q 6.65093115234375 0.6675000000000002 6.64943115234375 0.7012500000000003 Q 6.64793115234375 0.7350000000000003 6.64043115234375 0.7687500000000003 Q 6.63293115234375 0.8025000000000002 6.61718115234375 0.8355000000000002 Q 6.60143115234375 0.8685000000000003 6.57143115234375 0.9015000000000003 Q 6.51743115234375 0.9600000000000003 6.4499311523437495 0.9810000000000003 Q 6.38243115234375 1.0020000000000002 6.3089311523437495 1.0020000000000002 Q 6.24593115234375 1.0020000000000002 6.19718115234375 0.9825000000000003 Q 6.14843115234375 0.9630000000000003 6.10493115234375 0.9240000000000003 Q 6.07043115234375 0.8940000000000002 6.0524311523437495 0.8640000000000003 Q 6.03443115234375 0.8340000000000003 6.02543115234375 0.8047500000000003 Q 6.01643115234375 0.7755000000000003 6.01493115234375 0.7455000000000003 Q 6.01343115234375 0.7155000000000002 6.01343115234375 0.6855000000000002 L 6.01343115234375 2.220446049250313e-16 L 5.87693115234375 2.220446049250313e-16 M 7.1338872070312505 2.220446049250313e-16 L 7.03188720703125 2.220446049250313e-16 L 7.03188720703125 1.0500000000000003 L 7.097887207031251 1.0500000000000003 L 7.097887207031251 0.19350000000000023 L 7.10388720703125 0.19350000000000023 L 7.567387207031251 1.0680000000000003 L 7.59438720703125 1.0680000000000003 L 8.06838720703125 0.19950000000000023 L 8.07438720703125 0.19950000000000023 L 8.07438720703125 1.0500000000000003 L 8.21088720703125 1.0500000000000003 L 8.21088720703125 2.220446049250313e-16 L 8.10738720703125 2.220446049250313e-16 L 7.62138720703125 0.9015000000000003 L 7.615387207031251 0.9015000000000003 L 7.1338872070312505 2.220446049250313e-16 M 9.169388671875002 0.7410000000000003 L 9.313388671875002 1.0500000000000003 L 9.458888671875002 1.0500000000000003 L 8.969888671875001 2.220446049250313e-16 L 8.894888671875002 2.220446049250313e-16 L 8.450888671875001 1.0500000000000003 L 8.519888671875002 1.0500000000000003 L 8.651888671875001 0.7410000000000003 L 9.169388671875002 0.7410000000000003 M 9.137888671875 0.6735000000000002 L 8.680388671875 0.6735000000000002 L 8.896388671875002 0.16800000000000026 L 8.902388671875 0.16800000000000026 L 9.137888671875 0.6735000000000002 M 9.698880615234376 2.220446049250313e-16 L 9.698880615234376 1.0500000000000003 L 9.835380615234376 1.0500000000000003 L 9.835380615234376 0.5865000000000002 L 9.901380615234377 0.5865000000000002 Q 9.943380615234377 0.5865000000000002 9.971130615234376 0.5940000000000003 Q 9.998880615234377 0.6015000000000003 10.021380615234376 0.6195000000000003 Q 10.043880615234377 0.6375000000000002 10.063380615234376 0.6660000000000003 Q 10.082880615234377 0.6945000000000003 10.109880615234376 0.7365000000000003 L 10.228380615234377 0.9120000000000003 Q 10.250880615234376 0.9465000000000002 10.272630615234377 0.9750000000000003 Q 10.294380615234376 1.0035000000000003 10.319880615234377 1.0237500000000002 Q 10.345380615234376 1.0440000000000003 10.377630615234377 1.0560000000000003 Q 10.409880615234377 1.0680000000000003 10.454880615234377 1.0680000000000003 Q 10.487880615234376 1.0680000000000003 10.508880615234377 1.0650000000000002 Q 10.529880615234376 1.0620000000000003 10.550880615234377 1.0500000000000003 L 10.550880615234377 0.9945000000000003 Q 10.543380615234376 0.9960000000000002 10.535880615234376 0.9967500000000002 Q 10.528380615234376 0.9975000000000003 10.520880615234377 0.9975000000000003 Q 10.489380615234376 0.9975000000000003 10.465380615234377 0.9885000000000003 Q 10.441380615234376 0.9795000000000003 10.420380615234377 0.9622500000000003 Q 10.399380615234376 0.9450000000000003 10.379880615234377 0.9202500000000002 Q 10.360380615234376 0.8955000000000003 10.339380615234376 0.8640000000000003 Q 10.276380615234377 0.7725000000000002 10.241880615234377 0.7177500000000003 Q 10.207380615234376 0.6630000000000003 10.187130615234377 0.6330000000000002 Q 10.166880615234376 0.6030000000000002 10.154130615234376 0.5895000000000002 Q 10.141380615234377 0.5760000000000003 10.123380615234376 0.5670000000000003 L 10.108380615234376 0.5595000000000003 L 10.108380615234376 0.5535000000000003 Q 10.180380615234377 0.5490000000000003 10.232130615234377 0.5220000000000002 Q 10.283880615234377 0.4950000000000002 10.316880615234377 0.45450000000000024 Q 10.349880615234376 0.41400000000000026 10.364880615234377 0.36675000000000024 Q 10.379880615234377 0.31950000000000023 10.379880615234377 0.2745000000000003 Q 10.379880615234377 0.2340000000000002 10.364130615234377 0.18600000000000028 Q 10.348380615234376 0.13800000000000023 10.310130615234376 0.09675000000000022 Q 10.271880615234377 0.055500000000000216 10.205880615234376 0.027750000000000163 Q 10.139880615234377 2.220446049250313e-16 10.039380615234377 2.220446049250313e-16 L 9.698880615234376 2.220446049250313e-16 M 9.835380615234376 0.06600000000000028 L 9.986880615234377 0.06600000000000028 Q 10.043880615234377 0.06600000000000028 10.089630615234377 0.08250000000000024 Q 10.135380615234377 0.0990000000000002 10.168380615234376 0.1282500000000002 Q 10.201380615234376 0.1575000000000002 10.218630615234376 0.1980000000000003 Q 10.235880615234377 0.23850000000000027 10.235880615234377 0.2865000000000002 Q 10.235880615234377 0.3270000000000003 10.220130615234376 0.3682500000000003 Q 10.204380615234376 0.4095000000000003 10.172880615234376 0.44325000000000025 Q 10.141380615234377 0.4770000000000002 10.095630615234377 0.4980000000000002 Q 10.049880615234377 0.5190000000000002 9.989880615234377 0.5190000000000002 L 9.835380615234376 0.5190000000000002 L 9.835380615234376 0.06600000000000028" fill="#ffffff" fill-rule="nonzero"></path></g><g></g><g clip-path="url(#SvgjsClipPath1001)"><g clip-path="url(#SvgjsClipPath10006fdbd0b5-3a84-470e-8806-3c519a167f4a)"><path d=" M 8.434145957584343 -7.974354777830533 L 2.1617610248375323 -7.974354777830533 L 2.1617610248375323 -1.7019698450837213 L 8.434145957584343 -1.7019698450837213 Z M 2.053618039156488 -8.082497763511578 L 2.053618039156488 -1.5938268594026779 L 8.542288943265387 -1.5938268594026779 L 8.542288943265387 -8.082497763511578 Z" fill="#1192dc" transform="matrix(1,0,0,1,0,0)" fill-rule="evenodd"></path></g><g clip-path="url(#SvgjsClipPath10006fdbd0b5-3a84-470e-8806-3c519a167f4a)"><path d=" M 5.297953491210937 -9.27340117307339 L 0.8627146295946755 -4.838162311457127 L 5.297953491210937 -0.4029234498408645 L 9.733192352827201 -4.838162311457127 Z M 0.7097911797538092 -4.838162311457127 L 5.297953491210937 -0.25 L 9.886115802668066 -4.838162311457127 L 5.297953491210937 -9.426324622914256 Z" fill="#1192dc" transform="matrix(1,0,0,1,0,0)" fill-rule="evenodd"></path></g><g clip-path="url(#SvgjsClipPath10006fdbd0b5-3a84-470e-8806-3c519a167f4a)"><path d=" M 6.445865819914396 -9.122267106533991 L 1.0138486961340731 -5.986074640160586 L 4.1500411625074785 -0.5540575163802641 L 9.5820582862878 -3.6902499827536692 Z M 0.8661098697051539 -6.025670480908461 L 4.110445321759603 -0.4063186899513438 L 9.72979711271672 -3.6506541420057936 L 6.4854616606622715 -9.270005932962912 Z" fill="#1192dc" transform="matrix(1,0,0,1,0,0)" fill-rule="evenodd"></path></g><g clip-path="url(#SvgjsClipPath10006fdbd0b5-3a84-470e-8806-3c519a167f4a)"><path d=" M 9.5820582862878 -5.986074640160586 L 4.1500411625074785 -9.122267106533991 L 1.0138486961340731 -3.690249982753669 L 6.4458658199143954 -0.5540575163802641 Z M 4.110445321759603 -9.270005932962912 L 0.8661098697051539 -3.6506541420057936 L 6.4854616606622715 -0.4063186899513438 L 9.72979711271672 -6.025670480908461 Z" fill="#1192dc" transform="matrix(1,0,0,1,0,0)" fill-rule="evenodd"></path></g><g clip-path="url(#SvgjsClipPath10006fdbd0b5-3a84-470e-8806-3c519a167f4a)"><path d=" M 7.515549981207512 -8.679188272116576 L 1.4569275305514882 -7.055758801453702 L 3.080357001214364 -0.9971363507976783 L 9.138979451870387 -2.620565821460554 Z M 1.3246049294890645 -7.132243467185692 L 3.0038723354823733 -0.864813749735255 L 9.27130205293281 -2.5440811557285636 L 7.592034646939501 -8.811510873179001 Z" fill="#1192dc" transform="matrix(1,0,0,1,0,0)" fill-rule="evenodd"></path></g><g clip-path="url(#SvgjsClipPath10006fdbd0b5-3a84-470e-8806-3c519a167f4a)"><path d=" M 9.138979451870387 -7.055758801453702 L 3.080357001214364 -8.679188272116576 L 1.4569275305514882 -2.620565821460554 L 7.515549981207512 -0.9971363507976783 Z M 3.0038723354823733 -8.811510873179001 L 1.3246049294890645 -2.5440811557285636 L 7.592034646939501 -0.864813749735255 L 9.27130205293281 -7.132243467185692 Z" fill="#1192dc" transform="matrix(1,0,0,1,0,0)" fill-rule="evenodd"></path></g><path d=" M 3.3197957992157123 -7.0768111239496285 L 5.724832514110233 -7.0768111239496285 C 5.958738828027656 -7.0768111239496285 6.167655151141934 -7.041825136825228 6.351581483453069 -6.971853162576426 C 6.5355078157642055 -6.901881188327625 6.690445758743694 -6.8084186227238686 6.816395312391537 -6.691465465765157 C 6.942344866039379 -6.5745123088064465 7.038806230539514 -6.4385667588373465 7.105779405891937 -6.283628815857856 C 7.172752581244362 -6.128690872878368 7.206239168920574 -5.967255532290062 7.206239168920574 -5.799322794092938 C 7.206239168920574 -5.645384450745575 7.1897457749905005 -5.5104385004086005 7.156758987130351 -5.3944849430820145 C 7.123772199270199 -5.2785313857554295 7.0757914169281655 -5.175572623646478 7.012816640104244 -5.085608656755163 C 6.949841863280323 -4.9956446898638465 6.872372891790578 -4.91617651910985 6.78040972563501 -4.847204144493174 C 6.688446559479443 -4.7782317698764984 6.58348859810624 -4.715756792868641 6.465535841515404 -4.6597792134696 C 6.567495003992228 -4.6078000325990605 6.657458970883544 -4.528331861845064 6.735427742189353 -4.421374701207611 C 6.81339651349516 -4.314417540570157 6.872372891790578 -4.175972991520743 6.912356877075608 -4.006041054059368 L 7.065295620790845 -3.4152776714730577 L 7.4401454828379965 -3.4152776714730577 L 7.446143080630749 -2.530631997041781 L 6.126671566224779 -2.530631997041781 L 5.946743632442146 -3.610199599737576 C 5.928750839063883 -3.73814835264967 5.901261849180425 -3.8486041119995638 5.864276662791773 -3.9415668777872575 C 5.827291476403121 -4.034529643574951 5.777811294612897 -4.110499215616507 5.715836117421102 -4.169475593911925 C 5.653860940229306 -4.228451972207344 5.5783911680038125 -4.271934556204814 5.4894268007446225 -4.299923345904334 C 5.400462433485432 -4.327912135603855 5.295004672296166 -4.341906530453615 5.173053517176827 -4.341906530453615 L 4.7862084595441665 -4.341906530453615 L 4.7862084595441665 -3.3523028946491364 L 5.203041506140599 -3.3523028946491364 L 5.203041506140599 -2.530631997041781 L 3.3197957992157123 -2.530631997041781 L 3.3197957992157123 -3.3523028946491364 L 3.7906072259469337 -3.3523028946491364 L 3.7906072259469337 -6.252141427445896 L 3.3197957992157123 -6.252141427445896 L 3.3197957992157123 -7.0768111239496285 M 4.7862084595441665 -6.252141427445896 L 4.7862084595441665 -5.1515822324754605 L 5.382969439923231 -5.1515822324754605 C 5.4969237979855645 -5.1515822324754605 5.599382760278454 -5.162078028612781 5.690346326801896 -5.183069620887421 C 5.7813098933253375 -5.2040612131620625 5.8592786646311446 -5.237048001022211 5.924252640719317 -5.2820299844678695 C 5.98922661680749 -5.327011967913528 6.039206598413777 -5.383489347128632 6.074192585538178 -5.451462122113182 C 6.109178572662579 -5.519434897097732 6.126671566224779 -5.600402467299917 6.126671566224779 -5.694364832719736 C 6.126671566224779 -5.870294367973865 6.063696789400858 -6.007239517575091 5.937747235753015 -6.1052002815234125 C 5.811797682105173 -6.203161045471735 5.626871750161911 -6.252141427445896 5.382969439923231 -6.252141427445896 L 4.7862084595441665 -6.252141427445896" fill="#1192dc" transform="matrix(1,0,0,1,0,0)" fill-rule="nonzero"></path></g></g><defs><clipPath id="SvgjsClipPath1001"><path d=" M 0.7097911797538092 -9.426324622914256 h 9.176324622914256 v 9.176324622914256 h -9.176324622914256 Z"></path></clipPath><clipPath id="SvgjsClipPath10006fdbd0b5-3a84-470e-8806-3c519a167f4a"><path d=" M 0.7097911797538092 -9.426324622914256 L 9.886115802668066 -9.426324622914256 L 9.886115802668066 -0.25 L 0.7097911797538092 -0.25 Z"></path></clipPath></defs></svg>